<svg t="1634295425371" class="icon" viewBox="0 0 1024 1024" version="1.1" xmlns="http://www.w3.org/2000/svg" p-id="3597" width="200" height="200">
      <path d="M781.755733 629.408427c-68.194987 0-127.767893 36.246187-161.972906 90.432853l-206.35648-119.62368c13.28128-26.555733 21.53472-56.224427 21.53472-88.162987 0-19.735893-3.70688-38.27712-9.086294-56.224426l214.72256-124.52864c36.246187 40.318293 87.446187 63.399253 141.1584 63.399253 106.46528 0 192.720213-87.565653 192.720214-195.584C974.34624 90.978987 888.09472 3.413333 781.755733 3.413333c-106.46528 0-192.720213 87.565653-192.720213 195.587414 0 19.739307 3.713707 38.280533 9.09312 56.224426l-214.725973 124.532054c-36.2496-40.318293-87.446187-63.2832-141.1584-63.402667-106.458453 0-192.7168 87.565653-192.7168 195.587413 0 108.02176 86.258347 195.590827 192.7168 195.590827 43.902293 0 83.981653-15.43168 116.401493-40.557227l-0.720213 1.4336 233.270613 135.420587c-0.720213 7.051947-2.153813 13.871787-2.153813 21.17632 0 108.018347 86.248107 195.584 192.713386 195.584s192.720213-87.565653 192.720214-195.584c-0.129707-108.028587-86.381227-195.597653-192.720214-195.597653z m0-547.761494c41.274027 0 79.428267 22.370987 100.12672 58.73664 20.69504 36.36224 20.69504 81.107627 0 117.3504-20.698453 36.365653-58.852693 58.73664-100.12672 58.73664-63.88736 0-115.5584-52.517547-115.5584-117.3504-0.12288-64.959147 51.67104-117.47328 115.5584-117.47328zM242.240853 629.408427c-41.270613 0-79.43168-22.370987-100.12672-58.733227-20.69504-36.365653-20.69504-81.107627 0-117.353813 20.69504-36.36224 58.856107-58.73664 100.12672-58.73664 63.883947 0 115.5584 52.514133 115.5584 117.3504 0.003413 64.96256-51.677867 117.47328-115.5584 117.47328z m539.51488 313.060693c-41.274027 0-79.43168-22.370987-100.12672-58.73664-20.69504-36.358827-20.69504-81.104213 0-117.353813 20.69504-36.358827 58.852693-58.733227 100.12672-58.733227 63.880533 0 115.554987 52.514133 115.554987 117.353813 0.003413 64.832853-51.677867 117.469867-115.554987 117.469867z" p-id="3598" fill="#200E32"></path>
</svg>